arm26_states
nRows=10
nColumns=17

# SIMM Motion File Header:
name arm26_states
datacolumns 17
datarows 10
otherdata 1
range 0.66117630999999599000 0.68149246999999580000
endheader
time	r_shoulder_elev	r_elbow_flex	r_shoulder_elev_u	r_elbow_flex_u	TRIlong.activation	TRIlong.fiber_length	TRIlat.activation	TRIlat.fiber_length	TRImed.activation	TRImed.fiber_length	BIClong.activation	BIClong.fiber_length	BICshort.activation	BICshort.fiber_length	BRA.activation	BRA.fiber_length
      0.66117630999999599000	    -16.68649141974328400000	    101.56278511944782000000	    -35.17499149826586800000	     49.04937272847215700000	      0.01000567372828998500	      0.16682829256982515000	      0.08488247254027887800	      0.10747591323937712000	      0.08177225784364620900	      0.10251217981679900000	      0.25356307618907786000	      0.09306961076032548000	      0.01154171540324021800	      0.09242705607790650800	      0.01009177538804832200	      0.06403619301799762200
      0.66248702999999598000	    -16.73228139215898500000	    101.62759542101621000000	    -34.69534023388357700000	     49.83932441122665600000	      0.01000566187233647300	      0.16471566370456314000	      0.08526969890370637900	      0.10749574574397326000	      0.08215154199354962600	      0.10253206829712577000	      0.25366210437210907000	      0.09302817630304553700	      0.01153420682327345300	      0.09238830557963327600	      0.01009153374965019200	      0.06400977072021180000
      0.66379774999999597000	    -16.77754355237732000000	    101.69320376340347000000	    -34.40478277562745300000	     50.18791517737590600000	      0.01000564938449566500	      0.16352184379702103000	      0.08565462194052680900	      0.10751565741519321000	      0.08252872212661839500	      0.10255204629057248000	      0.25376002436589290000	      0.09298700586506117300	      0.01152563704305570100	      0.09234963374267247900	      0.01009119408095545500	      0.06398311317005234100
      0.66510846999999595000	    -16.82260842222566300000	    101.75884575223014000000	    -34.33301941625656200000	     50.02612132202914800000	      0.01000563628513767900	      0.16320034500023439000	      0.08603752460390165500	      0.10753567005405205000	      0.08290405671171804900	      0.10257213301339342000	      0.25385697230642068000	      0.09294600325647332800	      0.01151604027244135800	      0.09231093281945049200	      0.01009075954216141400	      0.06395625501505412800
      0.66576382999999595000	    -16.84511931267840600000	    101.79155268621470000000	    -34.35424082756740900000	     49.80976575809281600000	      0.01000562951232523100	      0.16333943458609965000	      0.08622829709298958400	      0.10754570063744955000	      0.08309110390295149100	      0.10258220190317435000	      0.25390511966758800000	      0.09292556326154895200	      0.01151086715374726600	      0.09229158657192961000	      0.01009050765608930000	      0.06394279315381147500
      0.66707454999999594000	    -16.89015143903505800000	    101.85660109324776000000	    -34.35634782489396600000	     49.44932454645895300000	      0.01000561555837645900	      0.16338886471350658000	      0.08660877861188880100	      0.10756577705474071000	      0.08346425915845365200	      0.10260235478467764000	      0.25400069938006020000	      0.09288482011493995300	      0.01149985500063379500	      0.09225295524498561300	      0.01008993915633576500	      0.06391587773227872000
      0.66838526999999592000	    -16.93516894526121400000	    101.92120217690889000000	    -34.33418696456270400000	     49.12262543510759400000	      0.01000560134442075700	      0.16338388251436861000	      0.08698954471892905700	      0.10758583390516577000	      0.08383804017068401100	      0.10262248543440132000	      0.25409411378115943000	      0.09284428332569619200	      0.01148863828651902100	      0.09221447010385397400	      0.01008931415850176600	      0.06388904071581236200
      0.67100670999999590000	    -17.02510252352306700000	    102.04909404469038000000	    -34.27669091700686000000	     48.44712893020533800000	      0.01000557247063985800	      0.16337467279355733000	      0.08775342810609093600	      0.10762575543730869000	      0.08458901625051824800	      0.10266254089884981000	      0.25427410375553788000	      0.09276391655660964900	      0.01146635283770329300	      0.09213813894248314200	      0.01008793254880644000	      0.06383576230498026700
      0.67624958999999585000	    -17.20440553733593700000	    102.29943160782419000000	    -34.11156798037217200000	     47.03988427669590800000	      0.01000551310108975300	      0.16335618435062069000	      0.08928863126979066900	      0.10770430775911641000	      0.08610136503225722400	      0.10274130542497573000	      0.25461381294529167000	      0.09260652025781311600	      0.01142199305640551200	      0.09198892210002239400	      0.01008469965694328900	      0.06373122271173929700
      0.68149246999999580000	    -17.38267764066681300000	    102.54226684558851000000	    -33.87956057034814000000	     45.59801001851390400000	      0.01000545229815832100	      0.16332876015117653000	      0.09083695144729331300	      0.10778067362483858000	      0.08762640052450629300	      0.10281784159945266000	      0.25493690291571053000	      0.09245418783371975300	      0.01137240979965096900	      0.09184530710049403100	      0.01008120240395105600	      0.06362960933730871200
